# xmcd
# 
# Track frame offsets:
#     187
#     20042
#     41130
#     61962
#     83342
#     105950
#     121575
#     138950
#     155840
#     177070
#     198370
#     218472
#     236475
#     255542
# 
# Disc length: 3713
# 
# Revision: 2
# Processed by: cddbd v1.5.2PL0 Copyright (c) Steve Scherf et al.
# Submitted via: fre:ac v1.1beta1pre4
# 
DISCID=ab0e7f0e
DTITLE=Various Artist - 超魔神英雄伝ワタル シングルコレクション 1993 Oct．〜1998 Aug[disc2]
DYEAR=1999
DGENRE=Anime
TTITLE0=ワタル社中/七味トンがらし
TTITLE1=林原めぐみ、伊倉一恵/超ド級
TTITLE2=横山智佐/Rambling The War！
TTITLE3=林原めぐみ/それはトモダチ
TTITLE4=田中真弓/Heartbeat
TTITLE5=宮村優子/蜜の光
TTITLE6=田中真弓、西村知道/Let's Try！
TTITLE7=愛河理花子/Fighter
TTITLE8=玄田哲章/光眸
TTITLE9=田中真弓/Don't worry
TTITLE10=宮村優子/ワイルド・ワイルド・エンジェル
TTITLE11=林延年/Bad Dreamer
TTITLE12=伊藤健太郎/オレンジ
TTITLE13=伊倉一恵/虹の朝
EXTD=YEAR: 1999
EXTT0=
EXTT1=
EXTT2=
EXTT3=
EXTT4=
EXTT5=
EXTT6=
EXTT7=
EXTT8=
EXTT9=
EXTT10=
EXTT11=
EXTT12=
EXTT13=
PLAYORDER=
